# xmcd
#
# Track frame offsets:
#	150
#	12251
#	25155
#	37035
#	49089
#	60763
#	72620
#	87889
#	98466
#	111291
#	124982
#	137813
#	149677
#	163007
#	175064
#	189825
#	202014
#	214909
#	226814
#	237655
#	249530
#	260523
#	274141
#	285397
#	296880
#	308214
#	319048
#	332017
#
# Disc length: 4574 seconds
# Revision: 0
# Processed by: cddbd v1.5.2PL0 Copyright (c) Steve Scherf et al.
# Submitted via: dBpowerAMP V12.0
#
DISCID=a611dc1c
DTITLE=Johnny "Guitar" Watson - Rock 'n' Roll Legend
DYEAR=2008
DGENRE=Blues
TTITLE0=Gangster of Love
TTITLE1=Those Lonely, Lonely Nights
TTITLE2=One Room Country Shack
TTITLE3=Hot Little Mama
TTITLE4=Motorhead Baby
TTITLE5=Space Guitar
TTITLE6=Three Hours Past Midnight
TTITLE7=Ruben
TTITLE8=She Moves me
TTITLE9=Give a Little
TTITLE10=Love Me, Baby
TTITLE11=Oh Baby
TTITLE12=Someone Cares For me
TTITLE13=Too Tired
TTITLE14=Don't Touch me (I'm Gonna Hit The Highway)
TTITLE15=Gettin' Drunk
TTITLE16=Half Pint of Whiskey
TTITLE17=You Can't Take it With You
TTITLE18=Highway 60
TTITLE19=I Love to Love You
TTITLE20=I Got Eyes
TTITLE21=Sad Fool
TTITLE22=What's Goin' on
TTITLE23=Walkin' to my Baby
TTITLE24=Thinking
TTITLE25=No I Can't
TTITLE26=Stormy (With Chuck Higgins and His Mellotones)
TTITLE27=Just Won't Treat me Right (With Chuck Higgins and His Mellotones)
EXTD=
EXTT0=
EXTT1=
EXTT2=
EXTT3=
EXTT4=
EXTT5=
EXTT6=
EXTT7=
EXTT8=
EXTT9=
EXTT10=
EXTT11=
EXTT12=
EXTT13=
EXTT14=
EXTT15=
EXTT16=
EXTT17=
EXTT18=
EXTT19=
EXTT20=
EXTT21=
EXTT22=
EXTT23=
EXTT24=
EXTT25=
EXTT26=
EXTT27=
PLAYORDER=
